<mxfile host="app.diagrams.net" modified="2020-08-08T06:25:25.285Z" agent="5.0 (X11; Linux x86_64) AppleWebKit/537.36 (KHTML, like Gecko) Chrome/83.0.4103.116 Safari/537.36" etag="e18biX4POtMIM76rYFwz" version="13.6.1" type="github">
  <diagram id="V1DRkbgqIuq1GjUcm-6I" name="Page-1">
    <mxGraphModel dx="868" dy="462" grid="1" gridSize="10" guides="1" tooltips="1" connect="1" arrows="1" fold="1" page="1" pageScale="1" pageWidth="850" pageHeight="1100" math="0" shadow="0">
      <root>
        <mxCell id="0" />
        <mxCell id="1" parent="0" />
        <mxCell id="gxiQALe_LzAvQSR3Tb8f-4" value="" style="rounded=0;whiteSpace=wrap;html=1;fillColor=#f5f5f5;strokeColor=#666666;fontColor=#333333;" vertex="1" parent="1">
          <mxGeometry x="30" y="20" width="780" height="810" as="geometry" />
        </mxCell>
        <mxCell id="gxiQALe_LzAvQSR3Tb8f-9" value="" style="rounded=0;whiteSpace=wrap;html=1;" vertex="1" parent="1">
          <mxGeometry x="30" y="20" width="780" height="60" as="geometry" />
        </mxCell>
        <mxCell id="gxiQALe_LzAvQSR3Tb8f-32" value="" style="verticalLabelPosition=bottom;shadow=0;dashed=0;align=center;html=1;verticalAlign=top;strokeWidth=1;shape=mxgraph.mockup.graphics.simpleIcon;strokeColor=#999999;fontSize=14;" vertex="1" parent="1">
          <mxGeometry x="40" y="25" width="50" height="50" as="geometry" />
        </mxCell>
        <mxCell id="gxiQALe_LzAvQSR3Tb8f-33" value="JEEWA HEIGHER EDUCATION" style="text;html=1;strokeColor=none;fillColor=none;align=center;verticalAlign=middle;whiteSpace=wrap;rounded=0;fontSize=11;" vertex="1" parent="1">
          <mxGeometry x="62" y="40" width="230" height="20" as="geometry" />
        </mxCell>
        <mxCell id="gxiQALe_LzAvQSR3Tb8f-38" value="" style="html=1;verticalLabelPosition=bottom;align=center;labelBackgroundColor=#ffffff;verticalAlign=top;strokeWidth=2;strokeColor=#0080F0;shadow=0;dashed=0;shape=mxgraph.ios7.icons.user;fontSize=14;" vertex="1" parent="1">
          <mxGeometry x="778" y="42" width="16" height="16" as="geometry" />
        </mxCell>
        <mxCell id="gxiQALe_LzAvQSR3Tb8f-39" value="Admin" style="rounded=1;fillColor=#F1F2F4;strokeColor=none;html=1;fontColor=#596780;align=left;fontSize=12;spacingLeft=10" vertex="1" parent="1">
          <mxGeometry x="630" y="33.5" width="140" height="33" as="geometry" />
        </mxCell>
        <mxCell id="gxiQALe_LzAvQSR3Tb8f-40" value="" style="shape=triangle;direction=south;fillColor=#596780;strokeColor=none;html=1" vertex="1" parent="gxiQALe_LzAvQSR3Tb8f-39">
          <mxGeometry x="1" y="0.5" width="12" height="6" relative="1" as="geometry">
            <mxPoint x="-20" y="-3" as="offset" />
          </mxGeometry>
        </mxCell>
        <mxCell id="gxiQALe_LzAvQSR3Tb8f-42" value="&lt;font style=&quot;font-size: 21px&quot;&gt;VISA SECTION&lt;/font&gt;" style="text;html=1;strokeColor=none;fillColor=none;align=center;verticalAlign=middle;whiteSpace=wrap;rounded=0;fontSize=14;" vertex="1" parent="1">
          <mxGeometry x="260" y="30" width="320" height="40" as="geometry" />
        </mxCell>
        <mxCell id="gxiQALe_LzAvQSR3Tb8f-61" value="" style="rounded=0;whiteSpace=wrap;html=1;fontSize=11;" vertex="1" parent="1">
          <mxGeometry x="30" y="80" width="170" height="750" as="geometry" />
        </mxCell>
        <mxCell id="gxiQALe_LzAvQSR3Tb8f-62" value="" style="verticalLabelPosition=bottom;shadow=0;dashed=0;align=center;html=1;verticalAlign=top;strokeWidth=1;shape=mxgraph.mockup.containers.userMale;strokeColor=#666666;strokeColor2=#008cff;fontSize=11;" vertex="1" parent="1">
          <mxGeometry x="40" y="97" width="60" height="60" as="geometry" />
        </mxCell>
        <mxCell id="gxiQALe_LzAvQSR3Tb8f-63" value="&lt;font style=&quot;font-size: 9px&quot;&gt;S.P.P.P.Wanigarathne&lt;/font&gt;" style="text;html=1;strokeColor=none;fillColor=none;align=center;verticalAlign=middle;whiteSpace=wrap;rounded=0;fontSize=11;" vertex="1" parent="1">
          <mxGeometry x="132" y="100" width="40" height="20" as="geometry" />
        </mxCell>
        <mxCell id="gxiQALe_LzAvQSR3Tb8f-65" value="Administraor" style="text;html=1;strokeColor=none;fillColor=none;align=center;verticalAlign=middle;whiteSpace=wrap;rounded=0;fontSize=11;" vertex="1" parent="1">
          <mxGeometry x="119" y="120" width="40" height="20" as="geometry" />
        </mxCell>
        <mxCell id="gxiQALe_LzAvQSR3Tb8f-66" value="VISA SECTION" style="text;html=1;strokeColor=none;fillColor=none;align=center;verticalAlign=middle;whiteSpace=wrap;rounded=0;fontSize=11;" vertex="1" parent="1">
          <mxGeometry x="107" y="140" width="80" height="20" as="geometry" />
        </mxCell>
        <mxCell id="gxiQALe_LzAvQSR3Tb8f-67" value="" style="rounded=0;whiteSpace=wrap;html=1;fontSize=11;" vertex="1" parent="1">
          <mxGeometry x="30" y="200" width="170" height="30" as="geometry" />
        </mxCell>
        <mxCell id="gxiQALe_LzAvQSR3Tb8f-68" value="Dashboard" style="text;html=1;strokeColor=none;fillColor=none;align=center;verticalAlign=middle;whiteSpace=wrap;rounded=0;fontSize=11;" vertex="1" parent="1">
          <mxGeometry x="62" y="205" width="40" height="20" as="geometry" />
        </mxCell>
        <mxCell id="gxiQALe_LzAvQSR3Tb8f-69" value="&lt;font style=&quot;font-size: 17px&quot;&gt;&lt;b&gt;Dashboard&lt;/b&gt;&lt;/font&gt;" style="text;html=1;strokeColor=none;fillColor=none;align=center;verticalAlign=middle;whiteSpace=wrap;rounded=0;fontSize=11;" vertex="1" parent="1">
          <mxGeometry x="240" y="100" width="40" height="20" as="geometry" />
        </mxCell>
        <mxCell id="gxiQALe_LzAvQSR3Tb8f-70" value="" style="rounded=1;whiteSpace=wrap;html=1;fontSize=11;" vertex="1" parent="1">
          <mxGeometry x="210" y="140" width="180" height="90" as="geometry" />
        </mxCell>
        <mxCell id="gxiQALe_LzAvQSR3Tb8f-71" value="" style="rounded=1;whiteSpace=wrap;html=1;fontSize=11;" vertex="1" parent="1">
          <mxGeometry x="410" y="140" width="180" height="90" as="geometry" />
        </mxCell>
        <mxCell id="gxiQALe_LzAvQSR3Tb8f-72" value="" style="rounded=1;whiteSpace=wrap;html=1;fontSize=11;" vertex="1" parent="1">
          <mxGeometry x="610" y="140" width="180" height="90" as="geometry" />
        </mxCell>
        <mxCell id="gxiQALe_LzAvQSR3Tb8f-73" value="&lt;font style=&quot;font-size: 13px&quot;&gt;&lt;i&gt;Total Number Of Student in Institute&lt;/i&gt;&lt;/font&gt;" style="text;html=1;strokeColor=none;fillColor=none;align=center;verticalAlign=middle;whiteSpace=wrap;rounded=0;fontSize=11;" vertex="1" parent="1">
          <mxGeometry x="238" y="140" width="120" height="60" as="geometry" />
        </mxCell>
        <mxCell id="gxiQALe_LzAvQSR3Tb8f-74" value="&lt;b&gt;&lt;font style=&quot;font-size: 20px&quot;&gt;700&lt;/font&gt;&lt;/b&gt;" style="text;html=1;strokeColor=none;fillColor=none;align=center;verticalAlign=middle;whiteSpace=wrap;rounded=0;fontSize=11;" vertex="1" parent="1">
          <mxGeometry x="278" y="191" width="40" height="20" as="geometry" />
        </mxCell>
        <mxCell id="gxiQALe_LzAvQSR3Tb8f-75" value="" style="rounded=0;whiteSpace=wrap;html=1;fontSize=11;" vertex="1" parent="1">
          <mxGeometry x="30" y="230" width="170" height="30" as="geometry" />
        </mxCell>
        <mxCell id="gxiQALe_LzAvQSR3Tb8f-76" value="" style="rounded=0;whiteSpace=wrap;html=1;fontSize=11;" vertex="1" parent="1">
          <mxGeometry x="30" y="260" width="170" height="30" as="geometry" />
        </mxCell>
        <mxCell id="gxiQALe_LzAvQSR3Tb8f-77" value="Pending Students" style="text;html=1;strokeColor=none;fillColor=none;align=center;verticalAlign=middle;whiteSpace=wrap;rounded=0;fontSize=11;" vertex="1" parent="1">
          <mxGeometry x="48" y="235" width="100" height="20" as="geometry" />
        </mxCell>
        <mxCell id="gxiQALe_LzAvQSR3Tb8f-78" value="VISA processing section" style="text;html=1;strokeColor=none;fillColor=none;align=center;verticalAlign=middle;whiteSpace=wrap;rounded=0;fontSize=11;" vertex="1" parent="1">
          <mxGeometry x="51" y="265" width="124" height="20" as="geometry" />
        </mxCell>
      </root>
    </mxGraphModel>
  </diagram>
</mxfile>
